<?xml version="1.0" standalone="no"?>
<!DOCTYPE svg PUBLIC "-//W3C//DTD SVG 20010904//EN"
 "http://www.w3.org/TR/2001/REC-SVG-20010904/DTD/svg10.dtd">
<svg version="1.0" xmlns="http://www.w3.org/2000/svg"
 width="240.000000pt" height="240.000000pt" viewBox="0 0 240.000000 240.000000"
 preserveAspectRatio="xMidYMid meet">
<metadata>
Created by potrace 1.11, written by Peter Selinger 2001-2013
</metadata>
<g transform="translate(0.000000,240.000000) scale(0.100000,-0.100000)"
fill="#000000" stroke="none">
<path d="M1089 2196 c-2 -2 -24 -7 -49 -10 -132 -17 -319 -95 -430 -179 -165
-124 -292 -296 -353 -477 -26 -76 -31 -95 -46 -185 -12 -67 -12 -228 0 -290 5
-27 12 -63 15 -79 8 -44 42 -145 70 -206 87 -187 268 -370 458 -463 77 -39
110 -51 191 -73 117 -32 335 -40 451 -16 139 29 290 98 404 183 72 55 170 150
170 165 0 4 -141 148 -314 320 l-314 313 315 315 c269 270 313 318 304 333
-14 26 -133 136 -196 179 -73 51 -238 126 -305 139 -3 1 -18 4 -35 8 -16 4
-41 10 -55 13 -28 6 -276 15 -281 10z m201 -328 c118 -92 47 -274 -103 -262
-55 4 -80 19 -113 68 -52 76 -8 195 81 219 35 9 108 -4 135 -25z"/>
</g>
</svg>
